<?xml version="1.0" encoding="UTF-8"?>
<svg id="Layer_1" data-name="Layer 1" xmlns="http://www.w3.org/2000/svg" xmlns:xlink="http://www.w3.org/1999/xlink" viewBox="0 0 200 100">
  <defs>
    <style>
      .cls-1 {
        fill: url(#linear-gradient-13);
      }

      .cls-2 {
        fill: url(#linear-gradient-2);
      }

      .cls-3 {
        fill: url(#linear-gradient-10);
      }

      .cls-4 {
        fill: url(#linear-gradient-12);
      }

      .cls-5 {
        fill: url(#linear-gradient-4);
      }

      .cls-6 {
        fill: url(#linear-gradient-3);
      }

      .cls-7 {
        fill: url(#linear-gradient-5);
      }

      .cls-8 {
        fill: #2f7a4e;
        font-family: Montserrat-SemiBold, Montserrat;
        font-size: 8px;
        font-weight: 600;
      }

      .cls-9 {
        fill: url(#linear-gradient-8);
      }

      .cls-10 {
        fill: url(#linear-gradient-7);
      }

      .cls-11 {
        fill: url(#linear-gradient-9);
      }

      .cls-12 {
        fill: url(#linear-gradient-11);
      }

      .cls-13 {
        fill: url(#linear-gradient-6);
      }

      .cls-14 {
        fill: url(#linear-gradient);
      }

      .cls-15 {
        letter-spacing: -.04em;
      }
    </style>
    <linearGradient id="linear-gradient" x1="90.59" y1="40.43" x2="110.67" y2="40.43" gradientUnits="userSpaceOnUse">
      <stop offset="0" stop-color="#2f7a4e"/>
      <stop offset="1" stop-color="#3b2f7a"/>
    </linearGradient>
    <linearGradient id="linear-gradient-2" x1="88.81" y1="45.15" x2="111.24" y2="45.15" xlink:href="#linear-gradient"/>
    <linearGradient id="linear-gradient-3" x1="86.77" y1="45.11" x2="113.29" y2="45.11" xlink:href="#linear-gradient"/>
    <linearGradient id="linear-gradient-4" x1="84.57" y1="53.78" x2="98" y2="53.78" xlink:href="#linear-gradient"/>
    <linearGradient id="linear-gradient-5" x1="102.05" y1="53.78" x2="115.49" y2="53.78" xlink:href="#linear-gradient"/>
    <linearGradient id="linear-gradient-6" x1="84.47" y1="36.34" x2="98" y2="36.34" xlink:href="#linear-gradient"/>
    <linearGradient id="linear-gradient-7" x1="111.16" y1="38.76" x2="115.49" y2="38.76" xlink:href="#linear-gradient"/>
    <linearGradient id="linear-gradient-8" x1="114.06" y1="45.09" x2="116.55" y2="45.09" xlink:href="#linear-gradient"/>
    <linearGradient id="linear-gradient-9" x1="98.76" y1="29.77" x2="101.26" y2="29.77" xlink:href="#linear-gradient"/>
    <linearGradient id="linear-gradient-10" x1="98.76" y1="60.38" x2="101.26" y2="60.38" xlink:href="#linear-gradient"/>
    <linearGradient id="linear-gradient-11" x1="83.45" y1="45.1" x2="85.94" y2="45.1" xlink:href="#linear-gradient"/>
    <linearGradient id="linear-gradient-12" x1="101.95" y1="30.11" x2="104.93" y2="30.11" xlink:href="#linear-gradient"/>
    <linearGradient id="linear-gradient-13" x1="97.13" y1="47.1" x2="102.88" y2="47.1" xlink:href="#linear-gradient"/>
  </defs>
  <g>
    <path class="cls-14" d="M108.28,33.82c-.05.5-.41,1.56-.64,2.02-1,2.03-3.18,3.11-5.38,3.11l.5-.79c2.58-.32,4.46-2.08,4.74-4.69-2.73.95-4.81,2.84-6.06,5.45-.25.53-.99,2.3-.96,2.8.03.38.55.21.83.26,3.34.58,6.3,2.27,8.14,5.16-1.79,2.55-4.92,4.68-8.05,5.09-4.18.55-8.43-1.72-10.81-5.07,1.91-3.03,5.41-5.05,9-5.23.03-.59.45-1.37.48-1.9.03-.56-.28-1.44-.29-2.06-.05-1.52.45-2.99,1.35-4.19,2.22-2.98,6.31-2.64,8.78-5.25,1.87,4.76.31,10.54-4.99,12-1.11.31-2.33.52-3.46.2l.36-.75c5.75.63,9.15-4.72,7.74-9.97l-1.91,1c-2.45.99-5.3,1.64-6.5,4.26-.41.88-.74,2.19-.43,3.13,1.15-2.22,2.66-3.74,4.82-4.96.59-.33,2.05-1.16,2.61-1.34.08-.03.14-.03.22-.02.05.04-.1.13-.1.15,0,.5.05,1.11,0,1.58ZM104.36,47.11c0-2.4-1.95-4.35-4.35-4.35s-4.35,1.95-4.35,4.35,1.95,4.35,4.35,4.35,4.35-1.95,4.35-4.35ZM96.32,43.46c-1.87.73-3.6,2.04-4.73,3.69,1.19,1.52,2.79,2.77,4.58,3.52l-.91-1.56c-.82-2.03-.35-4.05,1.06-5.66ZM107.13,48.54c.46-.43.88-.86,1.3-1.33v-.19c-1.25-1.55-2.87-2.79-4.7-3.56l.94,1.38c.92,1.96.54,4.26-.94,5.83,1.24-.38,2.44-1.25,3.4-2.13Z"/>
    <path class="cls-2" d="M99.98,33.97l-.41.77c-7.43.35-12.3,8.48-8.79,15.2,1.54,2.94,4.83,5.28,8.18,5.55,8.74.71,14.51-8.54,9.73-15.96-.02-.15.56-.71.68-.62.73,1.3,1.33,2.57,1.63,4.05,2.11,10.38-10.03,17.44-18.18,10.77-6.75-5.52-4.58-16.38,3.55-19.16.45-.16,1.78-.59,2.18-.59h1.43Z"/>
    <path class="cls-6" d="M101.76,31.9c-.64.82-1.95.42-2.91.49-5.28.39-9.94,4.7-11.18,9.76-2.53,10.32,8.32,19.07,17.89,14.43,7.15-3.47,9.41-12.6,4.64-19l.31-.44c1.31,1.61,2.27,3.84,2.6,5.89,1.95,12.07-12.11,20.05-21.57,12.28-7.61-6.25-5.77-18.39,3.14-22.34,2.25-1,4.64-1.29,7.08-1.07Z"/>
    <path class="cls-5" d="M98,59.66l-.1.89c-6.78-1-12.55-6.57-13.34-13.44l.79-.1c.87,6.41,6.2,11.86,12.65,12.64Z"/>
    <path class="cls-7" d="M115.49,47.11c-.86,6.92-6.58,12.47-13.43,13.43v-.84c6.47-.94,11.73-6.2,12.64-12.69l.79.1Z"/>
    <path class="cls-13" d="M98,29.53v.78c-6.52.92-11.86,6.33-12.64,12.85l-.89-.1c1-6.91,6.53-12.69,13.53-13.53Z"/>
    <path class="cls-10" d="M115.49,43.06l-.79.1c-.49-2.89-1.58-5.57-3.54-7.77l.18-1.02c2.31,2.3,3.72,5.46,4.15,8.69Z"/>
    <path class="cls-9" d="M115.07,43.87c1.86-.3,2.01,2.52.17,2.46-1.48-.05-1.61-2.23-.17-2.46Z"/>
    <circle class="cls-11" cx="100.01" cy="29.77" r="1.25"/>
    <circle class="cls-3" cx="100.01" cy="60.38" r="1.25"/>
    <circle class="cls-12" cx="84.7" cy="45.1" r="1.24"/>
    <path class="cls-4" d="M104.92,30.12c.04.22-.01.16-.13.22-.1.05-.93.36-1.01.36-.45.01-1.32-.4-1.83-.38l.1-.79,2.86.59Z"/>
    <path class="cls-1" d="M101.26,44.45c-.17.25-.57.28-.72.62-.45,1.04.59,2.07,1.6,1.5l.5-.49c1.27,3.06-2.91,5.38-4.89,2.82-1.84-2.38.73-5.59,3.51-4.45Z"/>
  </g>
  <text class="cls-8" transform="translate(69.86 69.36)"><tspan x="0" y="0">EBA OBSER</tspan><tspan class="cls-15" x="48.71" y="0">V</tspan><tspan x="54.25" y="0">A</tspan></text>
</svg>